<mxfile host="app.diagrams.net" agent="Mozilla/5.0 (Windows NT 10.0; Win64; x64) AppleWebKit/537.36 (KHTML, like Gecko) Chrome/138.0.0.0 Safari/537.36" version="28.0.6">
  <diagram name="Page-1" id="0BQYEr5GXpWPju7EZQEe">
    <mxGraphModel dx="1042" dy="623" grid="1" gridSize="10" guides="1" tooltips="1" connect="1" arrows="1" fold="1" page="1" pageScale="1" pageWidth="850" pageHeight="1100" math="0" shadow="0">
      <root>
        <mxCell id="0" />
        <mxCell id="1" parent="0" />
        <mxCell id="ikYNv2bCu_7Knb5XScfv-2" value="" style="rounded=0;whiteSpace=wrap;html=1;" parent="1" vertex="1">
          <mxGeometry x="80" y="190" width="650" height="580" as="geometry" />
        </mxCell>
        <mxCell id="ikYNv2bCu_7Knb5XScfv-10" value="About Charusat Portal" style="text;html=1;align=center;verticalAlign=middle;whiteSpace=wrap;rounded=0;fontSize=48;" parent="1" vertex="1">
          <mxGeometry x="120" y="230" width="550" height="50" as="geometry" />
        </mxCell>
        <mxCell id="ikYNv2bCu_7Knb5XScfv-11" value="-----------------------------" style="text;html=1;align=center;verticalAlign=middle;whiteSpace=wrap;rounded=0;fontSize=54;" parent="1" vertex="1">
          <mxGeometry x="108.75" y="300" width="601.25" height="30" as="geometry" />
        </mxCell>
        <mxCell id="etQQPwbCU74crufigkdb-1" value="&lt;font style=&quot;font-size: 33px;&quot;&gt;Instruction&lt;/font&gt;" style="rounded=0;whiteSpace=wrap;html=1;strokeColor=default;align=center;verticalAlign=middle;fontFamily=Helvetica;fontSize=12;fontColor=default;fillColor=default;" vertex="1" parent="1">
          <mxGeometry x="180" y="350" width="430" height="60" as="geometry" />
        </mxCell>
      </root>
    </mxGraphModel>
  </diagram>
</mxfile>
